<svg width="16" height="16" viewBox="0 0 16 16" fill="none" xmlns="http://www.w3.org/2000/svg">
<path d="M0 6C0 2.68629 2.68629 0 6 0H10C13.3137 0 16 2.68629 16 6V10C16 13.3137 13.3137 16 10 16H6C2.68629 16 0 13.3137 0 10V6Z" fill="white"/>
<path d="M9.9 2.68C10.54 2.68 11.11 2.83 11.61 3.13C12.11 3.42 12.5 3.825 12.78 4.345C13.06 4.855 13.2 5.43 13.2 6.07V6.265C13.2 6.905 13.06 7.485 12.78 8.005C12.5 8.525 12.11 8.935 11.61 9.235C11.11 9.525 10.54 9.67 9.9 9.67H7.425V13H4.11V2.68H9.9ZM7.425 7.255H8.79C9.14 7.255 9.4 7.165 9.57 6.985C9.75 6.805 9.84 6.56 9.84 6.25V6.13C9.84 5.81 9.75 5.565 9.57 5.395C9.4 5.215 9.14 5.125 8.79 5.125H7.425V7.255Z" fill="#276EAD"/>
</svg>
